<svg xmlns="http://www.w3.org/2000/svg" viewBox="0 0 200 140" fill="none">
  <path d="M82 30 C78 24 86 20 82 14" stroke="#C9B497" stroke-width="3" stroke-linecap="round"/>
  <path d="M100 26 C96 20 104 16 100 10" stroke="#C9B497" stroke-width="3" stroke-linecap="round"/>
  <path d="M118 30 C114 24 122 20 118 14" stroke="#C9B497" stroke-width="3" stroke-linecap="round"/>
  <g stroke-linecap="round" stroke-linejoin="round">
    <path d="M60 118 C32 96 36 50 72 46 C92 44 100 60 100 74 C100 60 108 44 128 46 C164 50 168 96 140 118" stroke="#8A4B1F" stroke-width="17"/>
    <path d="M60 118 C32 96 36 50 72 46 C92 44 100 60 100 74 C100 60 108 44 128 46 C164 50 168 96 140 118" stroke="#D9933F" stroke-width="10"/>
    <path d="M60 118 C84 106 112 92 128 74" stroke="#8A4B1F" stroke-width="17"/>
    <path d="M60 118 C84 106 112 92 128 74" stroke="#D9933F" stroke-width="10"/>
    <path d="M140 118 C116 106 88 92 72 74" stroke="#8A4B1F" stroke-width="17"/>
    <path d="M140 118 C116 106 88 92 72 74" stroke="#D9933F" stroke-width="10"/>
  </g>
  <path d="M38 78 L46 72" stroke="#FFF1D6" stroke-width="5" stroke-linecap="round"/>
  <path d="M154 72 L162 78" stroke="#FFF1D6" stroke-width="5" stroke-linecap="round"/>
  <path d="M64 51 L68 43" stroke="#FFF1D6" stroke-width="5" stroke-linecap="round"/>
  <path d="M132 43 L136 51" stroke="#FFF1D6" stroke-width="5" stroke-linecap="round"/>
  <path d="M14 132 L186 132" stroke="#EADBC4" stroke-width="3" stroke-linecap="round"/>
</svg>
